<svg width="18" height="18" viewBox="0 0 18 18" fill="none" xmlns="http://www.w3.org/2000/svg">
<path d="M11.8167 5.25V3C11.8167 2.80109 11.7389 2.61032 11.6004 2.46967C11.4619 2.32902 11.274 2.25 11.0782 2.25H6.64677C6.45089 2.25 6.26303 2.32902 6.12452 2.46967C5.98602 2.61032 5.9082 2.80109 5.9082 3V5.25M7.38533 8.25V12.75M10.3396 8.25V12.75" stroke="#F15820" stroke-linecap="round" stroke-linejoin="round"/>
<path d="M2.95459 5.25H14.7716M13.2945 15V5.25H4.43172V15C4.43172 15.1989 4.50953 15.3897 4.64804 15.5303C4.78655 15.671 4.97441 15.75 5.17028 15.75H12.5559C12.7518 15.75 12.9397 15.671 13.0782 15.5303C13.2167 15.3897 13.2945 15.1989 13.2945 15Z" stroke="#192D48" stroke-linecap="round" stroke-linejoin="round"/>
</svg>
