<svg width="18" height="18" viewBox="0 0 18 18" fill="none" xmlns="http://www.w3.org/2000/svg">
<path d="M9.375 3H5.25C3.59315 3 2.25 4.34315 2.25 6V13.5C2.25 15.1569 3.59315 16.5 5.25 16.5H12.375C14.0319 16.5 15.375 15.1569 15.375 13.5V9.75" stroke="#1A2D48" stroke-linecap="round" stroke-linejoin="round"/>
<path d="M6.75 9.02811L13.5 2.27811C16.2 1.97811 16.375 4.15311 16.125 5.27811L9.375 12.0281L6.75 11.6531V9.02811Z" stroke="#F15820" stroke-linecap="round" stroke-linejoin="round"/>
<path d="M14.5964 7.01078C14.8679 6.9604 15.0471 6.69946 14.9967 6.42795C14.9464 6.15645 14.6854 5.97718 14.4139 6.02756L14.5964 7.01078ZM11.284 4.17218C11.4951 4.67918 11.8951 5.42426 12.4241 6.02273C12.9319 6.59712 13.6894 7.17906 14.5964 7.01078L14.4139 6.02756C14.0567 6.09383 13.6311 5.87824 13.1734 5.36043C12.7369 4.8667 12.3892 4.22491 12.2072 3.78778L11.284 4.17218Z" fill="#F15820"/>
</svg>
