<svg width="14" height="14" viewBox="0 0 14 14" fill="none" xmlns="http://www.w3.org/2000/svg">
<circle cx="7" cy="7" r="7" fill="#F19E41"/>
<circle cx="7" cy="3" r="1" fill="white"/>
<path d="M7 12C6.73587 11.9972 6.48347 11.9113 6.29667 11.7604C6.10987 11.6095 6.00347 11.4056 6 11.1923V5.80769C6 5.59349 6.10533 5.38802 6.29293 5.2366C6.4804 5.08508 6.7348 5 7 5C7.2652 5 7.5196 5.08508 7.70707 5.2366C7.89467 5.38802 8 5.59349 8 5.80769V11.1923C7.99653 11.4056 7.89013 11.6095 7.70333 11.7604C7.51653 11.9113 7.26413 11.9972 7 12Z" fill="white"/>
</svg>
