<svg width="46" height="46" viewBox="0 0 46 46" fill="none" xmlns="http://www.w3.org/2000/svg">
<path fill-rule="evenodd" clip-rule="evenodd" d="M15.5633 12.5734C15.5633 8.92716 19.1888 5.90339 23 5.90339C26.8111 5.90339 30.4366 8.92716 30.4366 12.5734C30.4366 15.9424 28.7278 17.524 26.43 19.5618L26.335 19.646C24.0572 21.665 21.2366 24.1652 21.2366 29.1333C21.2366 30.1072 22.0261 30.8967 23 30.8967C23.9738 30.8967 24.7633 30.1072 24.7633 29.1333C24.7633 25.8065 26.4634 24.2458 28.7699 22.2004L28.8338 22.1438C31.1252 20.1121 33.9631 17.5958 33.9631 12.5734C33.9631 6.52455 28.2705 2.37674 23 2.37674C17.7294 2.37674 12.0366 6.52455 12.0366 12.5734C12.0366 13.5472 12.8261 14.3367 13.8 14.3367C14.7738 14.3367 15.5633 13.5472 15.5633 12.5734ZM23 40.963C24.4819 40.963 25.6833 39.7615 25.6833 38.2797C25.6833 36.7975 24.4819 35.5963 23 35.5963C21.518 35.5963 20.3166 36.7975 20.3166 38.2797C20.3166 39.7615 21.518 40.963 23 40.963Z" fill="white"/>
</svg>
